<?xml version="1.0" standalone="no"?>
<!DOCTYPE svg PUBLIC "-//W3C//DTD SVG 1.1//EN"
"http://www.w3.org/Graphics/SVG/1.1/DTD/svg11.dtd">

<svg width="485" height="499" view_box="0 0 485 499"
xmlns="http://www.w3.org/2000/svg"
xmlns:link="http://www.w3.org/1999/xlink">\n\n<desc>Généré par Mocodo 2.3.7 le Sun, 21 Jan 2018 09:47:24</desc>

<rect id="frame" x="0" y="0" width="485" height="499" fill="#f7f7f7" stroke="none" stroke-width="0"/>

<!-- Association SUIVRE -->
<line x1="58" y1="77" x2="185" y2="77" stroke="#7fbc41" stroke-width="2"/>
<text x="112" y="94.0" fill="#c51b7d" font-family="Verdana" font-size="12">1,N</text>
<line x1="317" y1="77" x2="185" y2="77" stroke="#7fbc41" stroke-width="2"/>
<text x="240" y="94.0" fill="#c51b7d" font-family="Verdana" font-size="12">1,1</text>
<g id="association-SUIVRE">
	<path d="M 202 52 a 14 14 90 0 1 14 14 V 77 h -62 V 66 a 14 14 90 0 1 14 -14" fill="#b8e186" stroke="#b8e186" stroke-width="0"/>
	<path d="M 216 77.0 v 11 a 14 14 90 0 1 -14 14 H 168 a 14 14 90 0 1 -14 -14 V 77.0 H 62" fill="#e6f5d0" stroke="#e6f5d0" stroke-width="0"/>
	<rect x="154" y="52" width="62" height="50" fill="none" rx="14" stroke="#7fbc41" stroke-width="2"/>
	<line x1="154" y1="77" x2="216" y2="77" stroke="#7fbc41" stroke-width="1"/>
	<text x="161" y="69.7" fill="#000000" font-family="Verdana" font-size="12">SUIVRE</text>
	<text x="161" y="94.8" fill="#000000" font-family="Verdana" font-size="12">annee</text>
</g>

<!-- Association CONCERNE -->
<line x1="185" y1="456" x2="317" y2="456" stroke="#7fbc41" stroke-width="2"/>
<text x="223" y="473.0" fill="#c51b7d" font-family="Verdana" font-size="12">1,1</text>
<line x1="437" y1="246" x2="317" y2="456" stroke="#7fbc41" stroke-width="2"/>
<text x="408.417291682" y="314" fill="#c51b7d" font-family="Verdana" font-size="12">1,N</text>
<g id="association-CONCERNE">
	<path d="M 345 431 a 14 14 90 0 1 14 14 V 456 h -84 V 445 a 14 14 90 0 1 14 -14" fill="#b8e186" stroke="#b8e186" stroke-width="0"/>
	<path d="M 359 456.0 v 11 a 14 14 90 0 1 -14 14 H 289 a 14 14 90 0 1 -14 -14 V 456.0 H 84" fill="#e6f5d0" stroke="#e6f5d0" stroke-width="0"/>
	<rect x="275" y="431" width="84" height="50" fill="none" rx="14" stroke="#7fbc41" stroke-width="2"/>
	<line x1="275" y1="456" x2="359" y2="456" stroke="#7fbc41" stroke-width="1"/>
	<text x="282" y="448.7" fill="#000000" font-family="Verdana" font-size="12">CONCERNE</text>
</g>

<!-- Association ENSEIGNER -->
<line x1="58" y1="77" x2="58" y2="246" stroke="#7fbc41" stroke-width="2"/>
<text x="63.0" y="128" fill="#c51b7d" font-family="Verdana" font-size="12">1,N</text>
<line x1="185" y1="456" x2="58" y2="246" stroke="#7fbc41" stroke-width="2"/>
<text x="164.758516595" y="414" fill="#c51b7d" font-family="Verdana" font-size="12">1,N</text>
<line x1="185" y1="246" x2="58" y2="246" stroke="#7fbc41" stroke-width="2"/>
<text x="107" y="263.0" fill="#c51b7d" font-family="Verdana" font-size="12">1,N</text>
<g id="association-ENSEIGNER">
	<path d="M 88 221 a 14 14 90 0 1 14 14 V 246 h -88 V 235 a 14 14 90 0 1 14 -14" fill="#b8e186" stroke="#b8e186" stroke-width="0"/>
	<path d="M 102 246.0 v 11 a 14 14 90 0 1 -14 14 H 28 a 14 14 90 0 1 -14 -14 V 246.0 H 88" fill="#e6f5d0" stroke="#e6f5d0" stroke-width="0"/>
	<rect x="14" y="221" width="88" height="50" fill="none" rx="14" stroke="#7fbc41" stroke-width="2"/>
	<line x1="14" y1="246" x2="102" y2="246" stroke="#7fbc41" stroke-width="1"/>
	<text x="21" y="238.7" fill="#000000" font-family="Verdana" font-size="12">ENSEIGNER</text>
	<text x="21" y="263.8" fill="#000000" font-family="Verdana" font-size="12">annee</text>
</g>

<!-- Association PROPOSER -->
<line x1="185" y1="246" x2="185" y2="372" stroke="#7fbc41" stroke-width="2"/>
<text x="190.0" y="339" fill="#c51b7d" font-family="Verdana" font-size="12">1,N</text>
<line x1="437" y1="246" x2="185" y2="372" stroke="#7fbc41" stroke-width="2"/>
<text x="371" y="261.408752666" fill="#c51b7d" font-family="Verdana" font-size="12">1,N</text>
<g id="association-PROPOSER">
	<path d="M 212 347 a 14 14 90 0 1 14 14 V 372 h -82 V 361 a 14 14 90 0 1 14 -14" fill="#b8e186" stroke="#b8e186" stroke-width="0"/>
	<path d="M 226 372.0 v 11 a 14 14 90 0 1 -14 14 H 158 a 14 14 90 0 1 -14 -14 V 372.0 H 82" fill="#e6f5d0" stroke="#e6f5d0" stroke-width="0"/>
	<rect x="144" y="347" width="82" height="50" fill="none" rx="14" stroke="#7fbc41" stroke-width="2"/>
	<line x1="144" y1="372" x2="226" y2="372" stroke="#7fbc41" stroke-width="1"/>
	<text x="151" y="364.7" fill="#000000" font-family="Verdana" font-size="12">PROPOSER</text>
	<text x="151" y="389.8" fill="#000000" font-family="Verdana" font-size="12">date</text>
</g>

<!-- Association RECHERCHER -->
<line x1="317" y1="77" x2="317" y2="246" stroke="#7fbc41" stroke-width="2"/>
<text x="322.0" y="162" fill="#c51b7d" font-family="Verdana" font-size="12">1,N</text>
<line x1="437" y1="246" x2="317" y2="246" stroke="#7fbc41" stroke-width="2"/>
<text x="371" y="238.0" fill="#c51b7d" font-family="Verdana" font-size="12">1,N</text>
<g id="association-RECHERCHER">
	<path d="M 352 221 a 14 14 90 0 1 14 14 V 246 h -98 V 235 a 14 14 90 0 1 14 -14" fill="#b8e186" stroke="#b8e186" stroke-width="0"/>
	<path d="M 366 246.0 v 11 a 14 14 90 0 1 -14 14 H 282 a 14 14 90 0 1 -14 -14 V 246.0 H 98" fill="#e6f5d0" stroke="#e6f5d0" stroke-width="0"/>
	<rect x="268" y="221" width="98" height="50" fill="none" rx="14" stroke="#7fbc41" stroke-width="2"/>
	<line x1="268" y1="246" x2="366" y2="246" stroke="#7fbc41" stroke-width="1"/>
	<text x="275" y="238.7" fill="#000000" font-family="Verdana" font-size="12">RECHERCHER</text>
	<text x="275" y="263.8" fill="#000000" font-family="Verdana" font-size="12">date</text>
</g>

<!-- Association ASSITER -->
<line x1="437" y1="246" x2="437" y2="77" stroke="#7fbc41" stroke-width="2"/>
<text x="442.0" y="187" fill="#c51b7d" font-family="Verdana" font-size="12">1,N</text>
<line x1="185" y1="246" x2="437" y2="77" stroke="#7fbc41" stroke-width="2"/>
<text x="241" y="223.660864796" fill="#c51b7d" font-family="Verdana" font-size="12">1,N</text>
<line x1="317" y1="77" x2="437" y2="77" stroke="#7fbc41" stroke-width="2"/>
<text x="373" y="94.0" fill="#c51b7d" font-family="Verdana" font-size="12">1,N</text>
<g id="association-ASSITER">
	<path d="M 457 35 a 14 14 90 0 1 14 14 V 60 h -68 V 49 a 14 14 90 0 1 14 -14" fill="#b8e186" stroke="#b8e186" stroke-width="0"/>
	<path d="M 471 60.0 v 45 a 14 14 90 0 1 -14 14 H 417 a 14 14 90 0 1 -14 -14 V 60.0 H 68" fill="#e6f5d0" stroke="#e6f5d0" stroke-width="0"/>
	<rect x="403" y="35" width="68" height="84" fill="none" rx="14" stroke="#7fbc41" stroke-width="2"/>
	<line x1="403" y1="60" x2="471" y2="60" stroke="#7fbc41" stroke-width="1"/>
	<text x="410" y="52.7" fill="#000000" font-family="Verdana" font-size="12">ASSITER</text>
	<text x="410" y="77.8" fill="#000000" font-family="Verdana" font-size="12">date</text>
	<text x="410" y="94.8" fill="#000000" font-family="Verdana" font-size="12">heure</text>
	<text x="410" y="111.8" fill="#000000" font-family="Verdana" font-size="12">duree</text>
</g>

<!-- Entity MATIERE -->
<g id="entity-MATIERE">
	<g id="frame-MATIERE">
		<rect x="152" y="422" width="66" height="25" fill="#f1b6da" stroke="#f1b6da" stroke-width="0"/>
		<rect x="152" y="447.0" width="66" height="43" fill="#fde0ef" stroke="#fde0ef" stroke-width="0"/>
		<rect x="152" y="422" width="66" height="68" fill="none" stroke="#de77ae" stroke-width="2"/>
		<line x1="152" y1="447" x2="218" y2="447" stroke="#de77ae" stroke-width="1"/>
	</g>
	<text x="157" y="439.7" fill="#000000" font-family="Verdana" font-size="12">MATIERE</text>
	<text x="157" y="464.8" fill="#000000" font-family="Verdana" font-size="12">idMatier</text>
	<line x1="157" y1="467" x2="206" y2="467" stroke="#000000" stroke-width="1"/>
	<text x="157" y="481.8" fill="#000000" font-family="Verdana" font-size="12">nom</text>
</g>

<!-- Entity ÉLEVE -->
<g id="entity-ÉLEVE">
	<g id="frame-ÉLEVE">
		<rect x="266" y="9" width="102" height="25" fill="#f1b6da" stroke="#f1b6da" stroke-width="0"/>
		<rect x="266" y="34.0" width="102" height="111" fill="#fde0ef" stroke="#fde0ef" stroke-width="0"/>
		<rect x="266" y="9" width="102" height="136" fill="none" stroke="#de77ae" stroke-width="2"/>
		<line x1="266" y1="34" x2="368" y2="34" stroke="#de77ae" stroke-width="1"/>
	</g>
	<text x="297" y="26.7" fill="#000000" font-family="Verdana" font-size="12">ÉLEVE</text>
	<text x="271" y="51.7" fill="#000000" font-family="Verdana" font-size="12">idEleve</text>
	<line x1="271" y1="54" x2="315" y2="54" stroke="#000000" stroke-width="1"/>
	<text x="271" y="68.7" fill="#000000" font-family="Verdana" font-size="12">nom</text>
	<text x="271" y="85.8" fill="#000000" font-family="Verdana" font-size="12">prénom</text>
	<text x="271" y="102.8" fill="#000000" font-family="Verdana" font-size="12">dateNaissance</text>
	<text x="271" y="119.8" fill="#000000" font-family="Verdana" font-size="12">motDePasse</text>
	<text x="271" y="136.8" fill="#000000" font-family="Verdana" font-size="12">dateInscription</text>
</g>

<!-- Entity COURS -->
<g id="entity-COURS">
	<g id="frame-COURS">
		<rect x="398" y="195" width="78" height="25" fill="#f1b6da" stroke="#f1b6da" stroke-width="0"/>
		<rect x="398" y="220.0" width="78" height="77" fill="#fde0ef" stroke="#fde0ef" stroke-width="0"/>
		<rect x="398" y="195" width="78" height="102" fill="none" stroke="#de77ae" stroke-width="2"/>
		<line x1="398" y1="220" x2="476" y2="220" stroke="#de77ae" stroke-width="1"/>
	</g>
	<text x="415" y="212.7" fill="#000000" font-family="Verdana" font-size="12">COURS</text>
	<text x="403" y="237.7" fill="#000000" font-family="Verdana" font-size="12">idCours</text>
	<line x1="403" y1="240" x2="449" y2="240" stroke="#000000" stroke-width="1"/>
	<text x="403" y="254.8" fill="#000000" font-family="Verdana" font-size="12">nom</text>
	<text x="403" y="271.8" fill="#000000" font-family="Verdana" font-size="12">description</text>
	<text x="403" y="288.8" fill="#000000" font-family="Verdana" font-size="12">tarif</text>
</g>

<!-- Entity NIVEAUETUDE -->
<g id="entity-NIVEAUETUDE">
	<g id="frame-NIVEAUETUDE">
		<rect x="9" y="43" width="98" height="25" fill="#f1b6da" stroke="#f1b6da" stroke-width="0"/>
		<rect x="9" y="68.0" width="98" height="43" fill="#fde0ef" stroke="#fde0ef" stroke-width="0"/>
		<rect x="9" y="43" width="98" height="68" fill="none" stroke="#de77ae" stroke-width="2"/>
		<line x1="9" y1="68" x2="107" y2="68" stroke="#de77ae" stroke-width="1"/>
	</g>
	<text x="14" y="60.7" fill="#000000" font-family="Verdana" font-size="12">NIVEAUETUDE</text>
	<text x="14" y="85.8" fill="#000000" font-family="Verdana" font-size="12">idNiveauEtude</text>
	<line x1="14" y1="88" x2="102" y2="88" stroke="#000000" stroke-width="1"/>
	<text x="14" y="102.8" fill="#000000" font-family="Verdana" font-size="12">noM</text>
</g>

<!-- Entity ENSEIGNANT -->
<g id="entity-ENSEIGNANT">
	<g id="frame-ENSEIGNANT">
		<rect x="134" y="170" width="102" height="25" fill="#f1b6da" stroke="#f1b6da" stroke-width="0"/>
		<rect x="134" y="195.0" width="102" height="127" fill="#fde0ef" stroke="#fde0ef" stroke-width="0"/>
		<rect x="134" y="170" width="102" height="152" fill="none" stroke="#de77ae" stroke-width="2"/>
		<line x1="134" y1="195" x2="236" y2="195" stroke="#de77ae" stroke-width="1"/>
	</g>
	<text x="144" y="187.7" fill="#000000" font-family="Verdana" font-size="12">ENSEIGNANT</text>
	<text x="139" y="212.7" fill="#000000" font-family="Verdana" font-size="12">idEnseignant</text>
	<line x1="139" y1="215" x2="217" y2="215" stroke="#000000" stroke-width="1"/>
	<text x="139" y="229.7" fill="#000000" font-family="Verdana" font-size="12">nom</text>
	<text x="139" y="246.8" fill="#000000" font-family="Verdana" font-size="12">prénom</text>
	<text x="139" y="263.8" fill="#000000" font-family="Verdana" font-size="12">dateNaissance</text>
	<text x="139" y="280.8" fill="#000000" font-family="Verdana" font-size="12">motDePasse</text>
	<text x="139" y="297.8" fill="#000000" font-family="Verdana" font-size="12">notoriété</text>
	<text x="139" y="314.8" fill="#000000" font-family="Verdana" font-size="12">dateInscription</text>
</g>
</svg>