<?xml version="1.0" standalone="no"?>
<!DOCTYPE svg PUBLIC "-//W3C//DTD SVG 1.1//EN"
"http://www.w3.org/Graphics/SVG/1.1/DTD/svg11.dtd">

<svg width="488" height="776" view_box="0 0 488 776"
xmlns="http://www.w3.org/2000/svg"
xmlns:link="http://www.w3.org/1999/xlink">\n\n<desc>Généré par Mocodo 2.3.7 le Sat, 24 Mar 2018 07:50:55</desc>

<rect id="frame" x="0" y="0" width="488" height="776" fill="#f7f7f7" stroke="none" stroke-width="0"/>

<!-- Association SUIVRE -->
<line x1="61" y1="220" x2="188" y2="220" stroke="#d6604d" stroke-width="2"/>
<text x="115" y="237.0" fill="#2166ac" font-family="Verdana" font-size="12">1,N</text>
<line x1="320" y1="220" x2="188" y2="220" stroke="#d6604d" stroke-width="2"/>
<text x="243" y="237.0" fill="#2166ac" font-family="Verdana" font-size="12">1,1</text>
<g id="association-SUIVRE">
	<path d="M 205 195 a 14 14 90 0 1 14 14 V 220 h -62 V 209 a 14 14 90 0 1 14 -14" fill="#f4a582" stroke="#f4a582" stroke-width="0"/>
	<path d="M 219 220.0 v 11 a 14 14 90 0 1 -14 14 H 171 a 14 14 90 0 1 -14 -14 V 220.0 H 62" fill="#fddbc7" stroke="#fddbc7" stroke-width="0"/>
	<rect x="157" y="195" width="62" height="50" fill="none" rx="14" stroke="#d6604d" stroke-width="2"/>
	<line x1="157" y1="220" x2="219" y2="220" stroke="#d6604d" stroke-width="1"/>
	<text x="164" y="212.7" fill="#000000" font-family="Verdana" font-size="12">SUIVRE</text>
	<text x="164" y="237.8" fill="#000000" font-family="Verdana" font-size="12">annee</text>
</g>

<!-- Association ECHANGER -->
<line x1="61" y1="68" x2="188" y2="68" stroke="#d6604d" stroke-width="2"/>
<text x="109" y="85.0" fill="#2166ac" font-family="Verdana" font-size="12">1,N</text>
<line x1="188" y1="389" x2="188" y2="68" stroke="#d6604d" stroke-width="2"/>
<text x="161.0" y="305" fill="#2166ac" font-family="Verdana" font-size="12">1,N</text>
<line x1="320" y1="220" x2="188" y2="68" stroke="#d6604d" stroke-width="2"/>
<text x="242" y="171.904206112" fill="#2166ac" font-family="Verdana" font-size="12">1,N</text>
<g id="association-ECHANGER">
	<path d="M 215 43 a 14 14 90 0 1 14 14 V 68 h -82 V 57 a 14 14 90 0 1 14 -14" fill="#f4a582" stroke="#f4a582" stroke-width="0"/>
	<path d="M 229 68.0 v 11 a 14 14 90 0 1 -14 14 H 161 a 14 14 90 0 1 -14 -14 V 68.0 H 82" fill="#fddbc7" stroke="#fddbc7" stroke-width="0"/>
	<rect x="147" y="43" width="82" height="50" fill="none" rx="14" stroke="#d6604d" stroke-width="2"/>
	<line x1="147" y1="68" x2="229" y2="68" stroke="#d6604d" stroke-width="1"/>
	<text x="154" y="60.7" fill="#000000" font-family="Verdana" font-size="12">ECHANGER</text>
</g>

<!-- Association CONCERNE -->
<line x1="188" y1="599" x2="320" y2="599" stroke="#d6604d" stroke-width="2"/>
<text x="226" y="616.0" fill="#2166ac" font-family="Verdana" font-size="12">1,1</text>
<line x1="440" y1="389" x2="320" y2="599" stroke="#d6604d" stroke-width="2"/>
<text x="416.560148825" y="448" fill="#2166ac" font-family="Verdana" font-size="12">1,N</text>
<g id="association-CONCERNE">
	<path d="M 348 574 a 14 14 90 0 1 14 14 V 599 h -84 V 588 a 14 14 90 0 1 14 -14" fill="#f4a582" stroke="#f4a582" stroke-width="0"/>
	<path d="M 362 599.0 v 11 a 14 14 90 0 1 -14 14 H 292 a 14 14 90 0 1 -14 -14 V 599.0 H 84" fill="#fddbc7" stroke="#fddbc7" stroke-width="0"/>
	<rect x="278" y="574" width="84" height="50" fill="none" rx="14" stroke="#d6604d" stroke-width="2"/>
	<line x1="278" y1="599" x2="362" y2="599" stroke="#d6604d" stroke-width="1"/>
	<text x="285" y="591.7" fill="#000000" font-family="Verdana" font-size="12">CONCERNE</text>
</g>

<!-- Association ENSEIGNER -->
<line x1="61" y1="220" x2="61" y2="389" stroke="#d6604d" stroke-width="2"/>
<text x="66.0" y="271" fill="#2166ac" font-family="Verdana" font-size="12">1,N</text>
<line x1="188" y1="599" x2="61" y2="389" stroke="#d6604d" stroke-width="2"/>
<text x="167.758516595" y="557" fill="#2166ac" font-family="Verdana" font-size="12">1,N</text>
<line x1="188" y1="389" x2="61" y2="389" stroke="#d6604d" stroke-width="2"/>
<text x="110" y="406.0" fill="#2166ac" font-family="Verdana" font-size="12">1,N</text>
<g id="association-ENSEIGNER">
	<path d="M 91 364 a 14 14 90 0 1 14 14 V 389 h -88 V 378 a 14 14 90 0 1 14 -14" fill="#f4a582" stroke="#f4a582" stroke-width="0"/>
	<path d="M 105 389.0 v 11 a 14 14 90 0 1 -14 14 H 31 a 14 14 90 0 1 -14 -14 V 389.0 H 88" fill="#fddbc7" stroke="#fddbc7" stroke-width="0"/>
	<rect x="17" y="364" width="88" height="50" fill="none" rx="14" stroke="#d6604d" stroke-width="2"/>
	<line x1="17" y1="389" x2="105" y2="389" stroke="#d6604d" stroke-width="1"/>
	<text x="24" y="381.7" fill="#000000" font-family="Verdana" font-size="12">ENSEIGNER</text>
	<text x="24" y="406.8" fill="#000000" font-family="Verdana" font-size="12">annee</text>
</g>

<!-- Association PROPOSER -->
<line x1="188" y1="389" x2="188" y2="515" stroke="#d6604d" stroke-width="2"/>
<text x="193.0" y="482" fill="#2166ac" font-family="Verdana" font-size="12">1,N</text>
<line x1="440" y1="389" x2="188" y2="515" stroke="#d6604d" stroke-width="2"/>
<text x="374" y="404.408752666" fill="#2166ac" font-family="Verdana" font-size="12">1,N</text>
<g id="association-PROPOSER">
	<path d="M 215 490 a 14 14 90 0 1 14 14 V 515 h -82 V 504 a 14 14 90 0 1 14 -14" fill="#f4a582" stroke="#f4a582" stroke-width="0"/>
	<path d="M 229 515.0 v 11 a 14 14 90 0 1 -14 14 H 161 a 14 14 90 0 1 -14 -14 V 515.0 H 82" fill="#fddbc7" stroke="#fddbc7" stroke-width="0"/>
	<rect x="147" y="490" width="82" height="50" fill="none" rx="14" stroke="#d6604d" stroke-width="2"/>
	<line x1="147" y1="515" x2="229" y2="515" stroke="#d6604d" stroke-width="1"/>
	<text x="154" y="507.7" fill="#000000" font-family="Verdana" font-size="12">PROPOSER</text>
	<text x="154" y="532.8" fill="#000000" font-family="Verdana" font-size="12">date</text>
</g>

<!-- Association RECHERCHER -->
<line x1="320" y1="220" x2="320" y2="389" stroke="#d6604d" stroke-width="2"/>
<text x="325.0" y="305" fill="#2166ac" font-family="Verdana" font-size="12">1,N</text>
<line x1="440" y1="389" x2="320" y2="389" stroke="#d6604d" stroke-width="2"/>
<text x="374" y="381.0" fill="#2166ac" font-family="Verdana" font-size="12">1,N</text>
<g id="association-RECHERCHER">
	<path d="M 355 364 a 14 14 90 0 1 14 14 V 389 h -98 V 378 a 14 14 90 0 1 14 -14" fill="#f4a582" stroke="#f4a582" stroke-width="0"/>
	<path d="M 369 389.0 v 11 a 14 14 90 0 1 -14 14 H 285 a 14 14 90 0 1 -14 -14 V 389.0 H 98" fill="#fddbc7" stroke="#fddbc7" stroke-width="0"/>
	<rect x="271" y="364" width="98" height="50" fill="none" rx="14" stroke="#d6604d" stroke-width="2"/>
	<line x1="271" y1="389" x2="369" y2="389" stroke="#d6604d" stroke-width="1"/>
	<text x="278" y="381.7" fill="#000000" font-family="Verdana" font-size="12">RECHERCHER</text>
	<text x="278" y="406.8" fill="#000000" font-family="Verdana" font-size="12">date</text>
</g>

<!-- Association ASSITER -->
<line x1="440" y1="389" x2="440" y2="220" stroke="#d6604d" stroke-width="2"/>
<text x="445.0" y="339" fill="#2166ac" font-family="Verdana" font-size="12">1,N</text>
<line x1="188" y1="389" x2="440" y2="220" stroke="#d6604d" stroke-width="2"/>
<text x="244" y="366.660864796" fill="#2166ac" font-family="Verdana" font-size="12">1,N</text>
<line x1="320" y1="220" x2="440" y2="220" stroke="#d6604d" stroke-width="2"/>
<text x="376" y="237.0" fill="#2166ac" font-family="Verdana" font-size="12">1,N</text>
<g id="association-ASSITER">
	<path d="M 460 178 a 14 14 90 0 1 14 14 V 203 h -68 V 192 a 14 14 90 0 1 14 -14" fill="#f4a582" stroke="#f4a582" stroke-width="0"/>
	<path d="M 474 203.0 v 45 a 14 14 90 0 1 -14 14 H 420 a 14 14 90 0 1 -14 -14 V 203.0 H 68" fill="#fddbc7" stroke="#fddbc7" stroke-width="0"/>
	<rect x="406" y="178" width="68" height="84" fill="none" rx="14" stroke="#d6604d" stroke-width="2"/>
	<line x1="406" y1="203" x2="474" y2="203" stroke="#d6604d" stroke-width="1"/>
	<text x="413" y="195.7" fill="#000000" font-family="Verdana" font-size="12">ASSITER</text>
	<text x="413" y="220.8" fill="#000000" font-family="Verdana" font-size="12">date</text>
	<text x="413" y="237.8" fill="#000000" font-family="Verdana" font-size="12">heure</text>
	<text x="413" y="254.8" fill="#000000" font-family="Verdana" font-size="12">duree</text>
</g>

<!-- Association TYPER -->
<line x1="320" y1="708" x2="188" y2="708" stroke="#d6604d" stroke-width="2"/>
<text x="236" y="725.0" fill="#2166ac" font-family="Verdana" font-size="12">1,1</text>
<line x1="61" y1="708" x2="188" y2="708" stroke="#d6604d" stroke-width="2"/>
<text x="118" y="725.0" fill="#2166ac" font-family="Verdana" font-size="12">1,N</text>
<g id="association-TYPER">
	<path d="M 201 683 a 14 14 90 0 1 14 14 V 708 h -54 V 697 a 14 14 90 0 1 14 -14" fill="#f4a582" stroke="#f4a582" stroke-width="0"/>
	<path d="M 215 708.0 v 11 a 14 14 90 0 1 -14 14 H 175 a 14 14 90 0 1 -14 -14 V 708.0 H 54" fill="#fddbc7" stroke="#fddbc7" stroke-width="0"/>
	<rect x="161" y="683" width="54" height="50" fill="none" rx="14" stroke="#d6604d" stroke-width="2"/>
	<line x1="161" y1="708" x2="215" y2="708" stroke="#d6604d" stroke-width="1"/>
	<text x="168" y="700.7" fill="#000000" font-family="Verdana" font-size="12">TYPER</text>
</g>

<!-- Entity ÉLEVE -->
<g id="entity-ÉLEVE">
	<g id="frame-ÉLEVE">
		<rect x="269" y="152" width="102" height="25" fill="#92c5de" stroke="#92c5de" stroke-width="0"/>
		<rect x="269" y="177.0" width="102" height="111" fill="#d1e5f0" stroke="#d1e5f0" stroke-width="0"/>
		<rect x="269" y="152" width="102" height="136" fill="none" stroke="#4393c3" stroke-width="2"/>
		<line x1="269" y1="177" x2="371" y2="177" stroke="#4393c3" stroke-width="1"/>
	</g>
	<text x="300" y="169.7" fill="#000000" font-family="Verdana" font-size="12">ÉLEVE</text>
	<text x="274" y="194.7" fill="#000000" font-family="Verdana" font-size="12">idEleve</text>
	<line x1="274" y1="197" x2="318" y2="197" stroke="#000000" stroke-width="1"/>
	<text x="274" y="211.7" fill="#000000" font-family="Verdana" font-size="12">nom</text>
	<text x="274" y="228.8" fill="#000000" font-family="Verdana" font-size="12">prénom</text>
	<text x="274" y="245.8" fill="#000000" font-family="Verdana" font-size="12">dateNaissance</text>
	<text x="274" y="262.8" fill="#000000" font-family="Verdana" font-size="12">motDePasse</text>
	<text x="274" y="279.8" fill="#000000" font-family="Verdana" font-size="12">dateInscription</text>
</g>

<!-- Entity COURS -->
<g id="entity-COURS">
	<g id="frame-COURS">
		<rect x="401" y="347" width="78" height="25" fill="#92c5de" stroke="#92c5de" stroke-width="0"/>
		<rect x="401" y="372.0" width="78" height="59" fill="#d1e5f0" stroke="#d1e5f0" stroke-width="0"/>
		<rect x="401" y="347" width="78" height="84" fill="none" stroke="#4393c3" stroke-width="2"/>
		<line x1="401" y1="372" x2="479" y2="372" stroke="#4393c3" stroke-width="1"/>
	</g>
	<text x="418" y="364.7" fill="#000000" font-family="Verdana" font-size="12">COURS</text>
	<text x="406" y="389.8" fill="#000000" font-family="Verdana" font-size="12">idCours</text>
	<line x1="406" y1="392" x2="452" y2="392" stroke="#000000" stroke-width="1"/>
	<text x="406" y="406.8" fill="#000000" font-family="Verdana" font-size="12">nom</text>
	<text x="406" y="423.8" fill="#000000" font-family="Verdana" font-size="12">description</text>
</g>

<!-- Entity TYPERESSOURCE -->
<g id="entity-TYPERESSOURCE">
	<g id="frame-TYPERESSOURCE">
		<rect x="262" y="649" width="116" height="25" fill="#92c5de" stroke="#92c5de" stroke-width="0"/>
		<rect x="262" y="674.0" width="116" height="93" fill="#d1e5f0" stroke="#d1e5f0" stroke-width="0"/>
		<rect x="262" y="649" width="116" height="118" fill="none" stroke="#4393c3" stroke-width="2"/>
		<line x1="262" y1="674" x2="378" y2="674" stroke="#4393c3" stroke-width="1"/>
	</g>
	<text x="267" y="666.7" fill="#000000" font-family="Verdana" font-size="12">TYPERESSOURCE</text>
	<text x="267" y="691.7" fill="#000000" font-family="Verdana" font-size="12">idTypeRessource</text>
	<line x1="267" y1="694" x2="369" y2="694" stroke="#000000" stroke-width="1"/>
	<text x="267" y="708.8" fill="#000000" font-family="Verdana" font-size="12">nom</text>
	<text x="267" y="725.8" fill="#000000" font-family="Verdana" font-size="12">description</text>
	<text x="267" y="742.8" fill="#000000" font-family="Verdana" font-size="12">type_ressource</text>
	<text x="267" y="759.8" fill="#000000" font-family="Verdana" font-size="12">type_ressource</text>
</g>

<!-- Entity ENSEIGNANT -->
<g id="entity-ENSEIGNANT">
	<g id="frame-ENSEIGNANT">
		<rect x="137" y="313" width="102" height="25" fill="#92c5de" stroke="#92c5de" stroke-width="0"/>
		<rect x="137" y="338.0" width="102" height="127" fill="#d1e5f0" stroke="#d1e5f0" stroke-width="0"/>
		<rect x="137" y="313" width="102" height="152" fill="none" stroke="#4393c3" stroke-width="2"/>
		<line x1="137" y1="338" x2="239" y2="338" stroke="#4393c3" stroke-width="1"/>
	</g>
	<text x="147" y="330.7" fill="#000000" font-family="Verdana" font-size="12">ENSEIGNANT</text>
	<text x="142" y="355.7" fill="#000000" font-family="Verdana" font-size="12">idEnseignant</text>
	<line x1="142" y1="358" x2="220" y2="358" stroke="#000000" stroke-width="1"/>
	<text x="142" y="372.7" fill="#000000" font-family="Verdana" font-size="12">nom</text>
	<text x="142" y="389.8" fill="#000000" font-family="Verdana" font-size="12">prénom</text>
	<text x="142" y="406.8" fill="#000000" font-family="Verdana" font-size="12">dateNaissance</text>
	<text x="142" y="423.8" fill="#000000" font-family="Verdana" font-size="12">motDePasse</text>
	<text x="142" y="440.8" fill="#000000" font-family="Verdana" font-size="12">notoriété</text>
	<text x="142" y="457.8" fill="#000000" font-family="Verdana" font-size="12">dateInscription</text>
</g>

<!-- Entity MATIERE -->
<g id="entity-MATIERE">
	<g id="frame-MATIERE">
		<rect x="155" y="565" width="66" height="25" fill="#92c5de" stroke="#92c5de" stroke-width="0"/>
		<rect x="155" y="590.0" width="66" height="43" fill="#d1e5f0" stroke="#d1e5f0" stroke-width="0"/>
		<rect x="155" y="565" width="66" height="68" fill="none" stroke="#4393c3" stroke-width="2"/>
		<line x1="155" y1="590" x2="221" y2="590" stroke="#4393c3" stroke-width="1"/>
	</g>
	<text x="160" y="582.7" fill="#000000" font-family="Verdana" font-size="12">MATIERE</text>
	<text x="160" y="607.8" fill="#000000" font-family="Verdana" font-size="12">idMatier</text>
	<line x1="160" y1="610" x2="209" y2="610" stroke="#000000" stroke-width="1"/>
	<text x="160" y="624.8" fill="#000000" font-family="Verdana" font-size="12">nom</text>
</g>

<!-- Entity ADMINISTATEUR -->
<g id="entity-ADMINISTATEUR">
	<g id="frame-ADMINISTATEUR">
		<rect x="263" y="9" width="114" height="25" fill="#92c5de" stroke="#92c5de" stroke-width="0"/>
		<rect x="263" y="34.0" width="114" height="93" fill="#d1e5f0" stroke="#d1e5f0" stroke-width="0"/>
		<rect x="263" y="9" width="114" height="118" fill="none" stroke="#4393c3" stroke-width="2"/>
		<line x1="263" y1="34" x2="377" y2="34" stroke="#4393c3" stroke-width="1"/>
	</g>
	<text x="268" y="26.7" fill="#000000" font-family="Verdana" font-size="12">ADMINISTATEUR</text>
	<text x="268" y="51.7" fill="#000000" font-family="Verdana" font-size="12">idAdministrateur</text>
	<line x1="268" y1="54" x2="369" y2="54" stroke="#000000" stroke-width="1"/>
	<text x="268" y="68.8" fill="#000000" font-family="Verdana" font-size="12">nom</text>
	<text x="268" y="85.8" fill="#000000" font-family="Verdana" font-size="12">prénom</text>
	<text x="268" y="102.8" fill="#000000" font-family="Verdana" font-size="12">dateNaissance</text>
	<text x="268" y="119.8" fill="#000000" font-family="Verdana" font-size="12">motDePasse</text>
</g>

<!-- Entity NIVEAUETUDE -->
<g id="entity-NIVEAUETUDE">
	<g id="frame-NIVEAUETUDE">
		<rect x="12" y="186" width="98" height="25" fill="#92c5de" stroke="#92c5de" stroke-width="0"/>
		<rect x="12" y="211.0" width="98" height="43" fill="#d1e5f0" stroke="#d1e5f0" stroke-width="0"/>
		<rect x="12" y="186" width="98" height="68" fill="none" stroke="#4393c3" stroke-width="2"/>
		<line x1="12" y1="211" x2="110" y2="211" stroke="#4393c3" stroke-width="1"/>
	</g>
	<text x="17" y="203.7" fill="#000000" font-family="Verdana" font-size="12">NIVEAUETUDE</text>
	<text x="17" y="228.8" fill="#000000" font-family="Verdana" font-size="12">idNiveauEtude</text>
	<line x1="17" y1="231" x2="105" y2="231" stroke="#000000" stroke-width="1"/>
	<text x="17" y="245.8" fill="#000000" font-family="Verdana" font-size="12">noM</text>
</g>

<!-- Entity RESSOURCE -->
<g id="entity-RESSOURCE">
	<g id="frame-RESSOURCE">
		<rect x="9" y="649" width="104" height="25" fill="#92c5de" stroke="#92c5de" stroke-width="0"/>
		<rect x="9" y="674.0" width="104" height="93" fill="#d1e5f0" stroke="#d1e5f0" stroke-width="0"/>
		<rect x="9" y="649" width="104" height="118" fill="none" stroke="#4393c3" stroke-width="2"/>
		<line x1="9" y1="674" x2="113" y2="674" stroke="#4393c3" stroke-width="1"/>
	</g>
	<text x="23" y="666.7" fill="#000000" font-family="Verdana" font-size="12">RESSOURCE</text>
	<text x="14" y="691.7" fill="#000000" font-family="Verdana" font-size="12">idRessource</text>
	<line x1="14" y1="694" x2="87" y2="694" stroke="#000000" stroke-width="1"/>
	<text x="14" y="708.8" fill="#000000" font-family="Verdana" font-size="12">nom</text>
	<text x="14" y="725.8" fill="#000000" font-family="Verdana" font-size="12">description</text>
	<text x="14" y="742.8" fill="#000000" font-family="Verdana" font-size="12">type_ressource</text>
	<text x="14" y="759.8" fill="#000000" font-family="Verdana" font-size="12">type_ressource</text>
</g>

<!-- Entity MESSAGE -->
<g id="entity-MESSAGE">
	<g id="frame-MESSAGE">
		<rect x="18" y="9" width="86" height="25" fill="#92c5de" stroke="#92c5de" stroke-width="0"/>
		<rect x="18" y="34.0" width="86" height="93" fill="#d1e5f0" stroke="#d1e5f0" stroke-width="0"/>
		<rect x="18" y="9" width="86" height="118" fill="none" stroke="#4393c3" stroke-width="2"/>
		<line x1="18" y1="34" x2="104" y2="34" stroke="#4393c3" stroke-width="1"/>
	</g>
	<text x="31" y="26.7" fill="#000000" font-family="Verdana" font-size="12">MESSAGE</text>
	<text x="23" y="51.7" fill="#000000" font-family="Verdana" font-size="12">idMessage</text>
	<line x1="23" y1="54" x2="86" y2="54" stroke="#000000" stroke-width="1"/>
	<text x="23" y="68.8" fill="#000000" font-family="Verdana" font-size="12">valeur</text>
	<text x="23" y="85.8" fill="#000000" font-family="Verdana" font-size="12">expediteur</text>
	<text x="23" y="102.8" fill="#000000" font-family="Verdana" font-size="12">receveur</text>
	<text x="23" y="119.8" fill="#000000" font-family="Verdana" font-size="12">date_envoie</text>
</g>
</svg>